<mxfile host="app.diagrams.net" agent="Mozilla/5.0 (Windows NT 10.0; Win64; x64) AppleWebKit/537.36 (KHTML, like Gecko) Chrome/141.0.0.0 Safari/537.36 Edg/141.0.0.0" version="28.2.5">
  <diagram name="Página-1" id="PN61RU_2LjumoCLn4mo5">
    <mxGraphModel dx="760" dy="1285" grid="1" gridSize="10" guides="1" tooltips="1" connect="1" arrows="1" fold="1" page="1" pageScale="1" pageWidth="827" pageHeight="1169" math="0" shadow="0">
      <root>
        <mxCell id="0" />
        <mxCell id="1" parent="0" />
        <mxCell id="H-7EIriL6GY8UGnkkieo-3" value="" style="edgeStyle=orthogonalEdgeStyle;rounded=0;orthogonalLoop=1;jettySize=auto;html=1;" edge="1" parent="1" source="H-7EIriL6GY8UGnkkieo-1" target="H-7EIriL6GY8UGnkkieo-2">
          <mxGeometry relative="1" as="geometry" />
        </mxCell>
        <mxCell id="H-7EIriL6GY8UGnkkieo-1" value="i" style="ellipse;whiteSpace=wrap;html=1;" vertex="1" parent="1">
          <mxGeometry x="40" y="40" width="120" height="80" as="geometry" />
        </mxCell>
        <mxCell id="H-7EIriL6GY8UGnkkieo-5" value="" style="edgeStyle=orthogonalEdgeStyle;rounded=0;orthogonalLoop=1;jettySize=auto;html=1;" edge="1" parent="1" source="H-7EIriL6GY8UGnkkieo-2" target="H-7EIriL6GY8UGnkkieo-4">
          <mxGeometry relative="1" as="geometry" />
        </mxCell>
        <mxCell id="H-7EIriL6GY8UGnkkieo-2" value="S = 1&lt;div&gt;B = 0,8&lt;/div&gt;&lt;div&gt;R = 1,5&lt;/div&gt;&lt;div&gt;C = 0,6&lt;/div&gt;" style="whiteSpace=wrap;html=1;" vertex="1" parent="1">
          <mxGeometry x="250" y="50" width="120" height="60" as="geometry" />
        </mxCell>
        <mxCell id="H-7EIriL6GY8UGnkkieo-13" value="" style="edgeStyle=orthogonalEdgeStyle;rounded=0;orthogonalLoop=1;jettySize=auto;html=1;" edge="1" parent="1" source="H-7EIriL6GY8UGnkkieo-4" target="H-7EIriL6GY8UGnkkieo-12">
          <mxGeometry relative="1" as="geometry" />
        </mxCell>
        <mxCell id="H-7EIriL6GY8UGnkkieo-4" value="ler preço S, B, R, C" style="shape=parallelogram;perimeter=parallelogramPerimeter;whiteSpace=wrap;html=1;fixedSize=1;" vertex="1" parent="1">
          <mxGeometry x="450" y="50" width="150" height="60" as="geometry" />
        </mxCell>
        <mxCell id="H-7EIriL6GY8UGnkkieo-15" value="" style="edgeStyle=orthogonalEdgeStyle;rounded=0;orthogonalLoop=1;jettySize=auto;html=1;" edge="1" parent="1" source="H-7EIriL6GY8UGnkkieo-12" target="H-7EIriL6GY8UGnkkieo-14">
          <mxGeometry relative="1" as="geometry" />
        </mxCell>
        <mxCell id="H-7EIriL6GY8UGnkkieo-12" value="ler qB, qS, qR, qC" style="shape=parallelogram;perimeter=parallelogramPerimeter;whiteSpace=wrap;html=1;fixedSize=1;direction=west;" vertex="1" parent="1">
          <mxGeometry x="457.5" y="190" width="135" height="60" as="geometry" />
        </mxCell>
        <mxCell id="H-7EIriL6GY8UGnkkieo-19" value="" style="edgeStyle=orthogonalEdgeStyle;rounded=0;orthogonalLoop=1;jettySize=auto;html=1;" edge="1" parent="1" source="H-7EIriL6GY8UGnkkieo-14" target="H-7EIriL6GY8UGnkkieo-18">
          <mxGeometry relative="1" as="geometry" />
        </mxCell>
        <mxCell id="H-7EIriL6GY8UGnkkieo-14" value="lucro = (B*qb)+(S*qS)+(R*qR)+(C*qC)" style="whiteSpace=wrap;html=1;" vertex="1" parent="1">
          <mxGeometry x="665" y="190" width="120" height="60" as="geometry" />
        </mxCell>
        <mxCell id="H-7EIriL6GY8UGnkkieo-21" value="" style="edgeStyle=orthogonalEdgeStyle;rounded=0;orthogonalLoop=1;jettySize=auto;html=1;" edge="1" parent="1" source="H-7EIriL6GY8UGnkkieo-18" target="H-7EIriL6GY8UGnkkieo-20">
          <mxGeometry relative="1" as="geometry" />
        </mxCell>
        <mxCell id="H-7EIriL6GY8UGnkkieo-18" value="escrever &quot;o lucro foi &quot;&amp;lt;&amp;lt; lucro &amp;lt;&amp;lt;&quot;&quot;." style="shape=parallelogram;perimeter=parallelogramPerimeter;whiteSpace=wrap;html=1;fixedSize=1;" vertex="1" parent="1">
          <mxGeometry x="587.5" y="330" width="275" height="60" as="geometry" />
        </mxCell>
        <mxCell id="H-7EIriL6GY8UGnkkieo-20" value="f" style="ellipse;whiteSpace=wrap;html=1;" vertex="1" parent="1">
          <mxGeometry x="657.5" y="470" width="135" height="80" as="geometry" />
        </mxCell>
      </root>
    </mxGraphModel>
  </diagram>
</mxfile>
